<svg xmlns="http://www.w3.org/2000/svg" width="228.973" height="90.574" viewBox="0 0 228.973 90.574">
  <path id="Контур_1067" data-name="Контур 1067" d="M28872.348-572.869v-35.672h23.934v7.255h-16.074v7.255h14.863v7.256h-14.863v13.906Zm79.613-63.591H28918.9v6.594h26.441l.008,77.365-26.461,0-.008,6.593,33.125.018Zm-195.824,0h-33.059l-.047,90.574,33.125-.018,0-6.593-26.461,0,.008-77.365h26.438Zm159.039,63.591v-28.719H28905v-6.953h28.215v6.953h-10.18v28.719Zm-161.832-.2a13.062,13.062,0,0,1-4.715-3.073,12.863,12.863,0,0,1-2.844-4.636,17.146,17.146,0,0,1-.957-5.845v-21.917h7.859v21.615a8.711,8.711,0,0,0,.527,3.073,7.349,7.349,0,0,0,1.488,2.444,6.765,6.765,0,0,0,2.289,1.613,7.214,7.214,0,0,0,2.9.579,7.043,7.043,0,0,0,2.875-.579,6.834,6.834,0,0,0,2.266-1.613,7.42,7.42,0,0,0,1.488-2.444,8.709,8.709,0,0,0,.527-3.073v-21.615h7.859v21.917a17.24,17.24,0,0,1-.957,5.845,12.818,12.818,0,0,1-2.848,4.636,13.009,13.009,0,0,1-4.711,3.073,17.7,17.7,0,0,1-6.5,1.109,17.816,17.816,0,0,1-6.547-1.109h0Zm38.035.05a16.172,16.172,0,0,1-5.539-3.426l5.594-6.147a8.166,8.166,0,0,0,3.047,2.494,8.71,8.71,0,0,0,3.8.882,8.64,8.64,0,0,0,1.945-.227,6.337,6.337,0,0,0,1.762-.68,3.8,3.8,0,0,0,1.258-1.159,2.879,2.879,0,0,0,.48-1.662,3.014,3.014,0,0,0-1.234-2.545,11.364,11.364,0,0,0-3.1-1.587q-1.863-.655-4.027-1.31a18.068,18.068,0,0,1-4.031-1.763,9.717,9.717,0,0,1-3.1-2.922,8.382,8.382,0,0,1-1.234-4.786,10.693,10.693,0,0,1,1.137-5.039,10.9,10.9,0,0,1,3.023-3.628,13.106,13.106,0,0,1,4.359-2.192,17.8,17.8,0,0,1,5.086-.731,19.992,19.992,0,0,1,5.844.857,13.466,13.466,0,0,1,5.09,2.872l-5.391,5.9a5.617,5.617,0,0,0-2.594-1.789,9.3,9.3,0,0,0-3.1-.579,8.1,8.1,0,0,0-1.766.2,6.812,6.812,0,0,0-1.715.63,3.711,3.711,0,0,0-1.309,1.134,2.868,2.868,0,0,0-.5,1.713,2.835,2.835,0,0,0,1.211,2.469,11.414,11.414,0,0,0,3.047,1.461q1.84.605,3.957,1.209a16.282,16.282,0,0,1,3.953,1.713,9.346,9.346,0,0,1,3.047,2.973,9.038,9.038,0,0,1,1.211,4.988,11.475,11.475,0,0,1-1.109,5.189,10.541,10.541,0,0,1-3,3.679,12.767,12.767,0,0,1-4.383,2.167,19.287,19.287,0,0,1-5.27.705,19.1,19.1,0,0,1-6.449-1.057Zm45.172-28.316a10.223,10.223,0,0,0-3.5,2.393,10.461,10.461,0,0,0-2.242,3.653,13.077,13.077,0,0,0-.781,4.585,13.023,13.023,0,0,0,.781,4.61,10.507,10.507,0,0,0,2.242,3.628,10.214,10.214,0,0,0,3.5,2.393,11.683,11.683,0,0,0,4.559.857,11.675,11.675,0,0,0,4.563-.857,10.218,10.218,0,0,0,3.5-2.393,10.566,10.566,0,0,0,2.242-3.628,13.111,13.111,0,0,0,.781-4.61,13.169,13.169,0,0,0-.781-4.585,10.519,10.519,0,0,0-2.242-3.653,10.223,10.223,0,0,0-3.5-2.393,11.68,11.68,0,0,0-4.562-.857,11.689,11.689,0,0,0-4.559.857Zm-3.148,28.064a17.677,17.677,0,0,1-6.1-3.753,17.105,17.105,0,0,1-4.008-5.92,20.227,20.227,0,0,1-1.434-7.759,20.227,20.227,0,0,1,1.434-7.759,17.1,17.1,0,0,1,4.008-5.92,17.674,17.674,0,0,1,6.1-3.754,21.98,21.98,0,0,1,7.707-1.31,21.982,21.982,0,0,1,7.711,1.31,17.616,17.616,0,0,1,6.094,3.754,16.993,16.993,0,0,1,4.008,5.92,20.153,20.153,0,0,1,1.438,7.759,20.154,20.154,0,0,1-1.437,7.759,16.992,16.992,0,0,1-4.008,5.92,17.615,17.615,0,0,1-6.094,3.753,21.982,21.982,0,0,1-7.711,1.31A21.976,21.976,0,0,1,28833.4-573.272Z" transform="translate(-28723.031 636.46)" fill="#252626"/>
</svg>
